# AST/ASF file generated using VICON BodyLanguage
# -----------------------------------------------
:version 1.10
:name VICON
:units
  mass 1.0
  length 0.45
  angle deg
:documentation
   .ast/.asf automatically generated from VICON data using
   VICON BodyBuilder and BodyLanguage model FoxedUp or BRILLIANT.MOD
:root
   order TX TY TZ RX RY RZ
   axis XYZ
   position 0 0 0  
   orientation 0 0 0 
:bonedata
  begin
     id 1 
     name lhipjoint
     direction 0.573633 -0.743009 0.344793 
     length 2.46257 
     axis 0 0 0  XYZ
  end
  begin
     id 2 
     name lfemur
     direction 0.34202 -0.939693 0  
     length 7.3842  
     axis 0 0 20  XYZ
    dof rx ry rz
    limits (-160.0 20.0)
           (-70.0 70.0)
           (-60.0 70.0)
  end
  begin
     id 3 
     name ltibia
     direction 0.34202 -0.939693 0   
     length 7.50407   
     axis 0 0 20   XYZ
    dof rx
    limits (-10.0 170.0)
  end
  begin
     id 4 
     name lfoot
     direction 0.110749 -0.304281 0.946123   
     length 1.95925   
     axis -90 7.62852e-016 20   XYZ
    dof rx rz
    limits (-45.0 90.0)
           (-70.0 20.0)
  end
  begin
     id 5 
     name ltoes
     direction 1.53554e-011 -4.21843e-011 1   
     length 0.978318   
     axis -90 7.62852e-016 20   XYZ
    dof rx
    limits (-90.0 20.0)
  end
  begin
     id 6 
     name rhipjoint
     direction -0.488109 -0.791693 0.367385   
     length 2.31113  
     axis 0 0 0  XYZ 
  end
  begin
     id 7 
     name rfemur
     direction -0.34202 -0.939693 0   
     length 7.40965   
     axis 0 0 -20   XYZ
    dof rx ry rz
    limits (-160.0 20.0)
           (-70.0 70.0)
           (-70.0 60.0)
  end
  begin
     id 8 
     name rtibia
     direction -0.34202 -0.939693 0   
     length 7.55548   
     axis 0 0 -20   XYZ
    dof rx
    limits (-10.0 170.0)
 end
 begin
     id 9 
     name rfoot
     direction -0.127594 -0.350561 0.927808   
     length 2.07199  
     axis -90 -7.62852e-016 -20   XYZ
    dof rx rz
    limits (-45.0 90.0)
           (-20.0 70.0)
  end
  begin
     id 10 
     name rtoes
     direction -1.53542e-011 -4.21909e-011 1   
     length 1.02667   
     axis -90 -7.62852e-016 -20   XYZ
    dof rx
    limits (-90.0 20.0)
  end
  begin
     id 11 
     name lowerback
     direction -0.0103342 0.997298 -0.0727278   
     length 2.02836   
     axis 0 0 0   XYZ
    dof rx ry rz
    limits (-20.0 45.0)
           (-30.0 30.0)
           (-30.0 30.0)
  end
  begin
     id 12 
     name upperback
     direction 0.0171146 0.999786 -0.011606   
     length 2.03179   
     axis 0 0 0   XYZ
    dof rx ry rz
    limits (-20.0 45.0)
           (-30.0 30.0)
           (-30.0 30.0)
  end
  begin
     id 13 
     name thorax
     direction 0.0216927 0.999513 0.0224343   
     length 2.03882   
     axis 0 0 0   XYZ
    dof rx ry rz
    limits (-20.0 45.0)
           (-30.0 30.0)
           (-30.0 30.0)
  end
  begin
     id 14 
     name lowerneck
     direction 0.000989287 0.993907 0.110221   
     length 1.75428   
     axis 0 0 0   XYZ
    dof rx ry rz
    limits (-20.0 45.0)
           (-30.0 30.0)
           (-30.0 30.0)
  end
  begin
     id 15 
     name upperneck
     direction -0.0172474 0.994813 -0.100253   
     length 1.77058   
     axis 0 0 0   XYZ
    dof rx ry rz
    limits (-20.0 45.0)
           (-30.0 30.0)
           (-30.0 30.0)
  end
  begin
     id 16
     name head
     direction -0.00486455 0.99894 -0.0457663  
     length 1.77427  
     axis 0 0 0   XYZ
    dof rx ry rz
    limits (-20.0 45.0)
           (-30.0 30.0)
           (-30.0 30.0)
  end
  begin
     id 17 
     name lclavicle
     direction 0.927314 0.333734 -0.169441  
     length 3.97584  
     axis 0 0 0   XYZ
    dof ry rz
    limits (-20.0 10.0)
           (0.0 20.0)
  end
  begin
     id 18 
     name lhumerus
     direction 1 -4.48965e-011 -3.25313e-028   
     length 4.76468   
     axis 180 -30 -90   XYZ
    dof rx ry rz
    limits (-60.0 90.0)
           (-90.0 90.0)
           (-90.0 90.0)
  end
  begin
     id 19
     name lradius
     direction 1 -4.48969e-011 -2.8465e-028   
     length 3.52712   
     axis -180 -30 -90   XYZ
    dof rx
    limits (-10.0 170.0)
  end
  begin
     id 20
     name lwrist
     direction 1 -4.4896e-011 -7.78665e-028   
     length 1.76356   
     axis 1.91374e-015 90 90   XYZ
    dof ry
    limits (-180.0 0.0)
 end
  begin
     id 21 
     name lhand
     direction 1 -4.48959e-011 -1.55733e-027   
     length 0.859564   
     axis 9.9371e-016 90 90   XYZ
    dof rx rz
    limits (-90.0 90.0)
           (-45.0 45.0)
  end
  begin
     id 22 
     name lfingers
     direction 1 -4.48965e-011 -3.11466e-027   
     length 0.693002   
     axis 1.98742e-015 90 90   XYZ
    dof rx
    limits (0.0 90.0)
  end
  begin
     id 23
     name lthumb
     direction 0.707107 -6.34948e-011 0.707107   
     length 0.995017   
     axis -90 45 2.85299e-015   XYZ
    dof rx rz
    limits (-45.0 45.0)
           (-45.0 45.0)
  end
  begin
     id 24 
     name rclavicle
     direction -0.899388 0.348209 -0.264294   
     length 3.68366  
     axis 0 0 0   XYZ 
    dof ry rz
    limits (-10.0 20.0)
           (-20.0 0.0)
  end
  begin
     id 25 
     name rhumerus
     direction -1 -4.48965e-011 -3.01536e-027  
     length 4.90577   
     axis 180 30 90   XYZ
    dof rx ry rz
    limits (-90.0 60.0)
           (-90.0 90.0)
           (-90.0 90.0)
  end
  begin
     id 26 
     name rradius
     direction -1 -4.48966e-011 3.93291e-027   
     length 3.42692   
     axis -180 30 90   XYZ
    dof rx
    limits (-10.0 170.0)
  end
  begin
     id 27 
     name rwrist
     direction -1 -4.48969e-011 -7.78665e-028   
     length 1.71346   
     axis 1.91374e-015 -90 -90   XYZ
    dof ry
    limits (-180.0 0.0)
  end
  begin
     id 28
     name rhand
     direction -1 -4.48967e-011 -1.55733e-027   
     length 0.740957   
     axis 9.9371e-016 -90 -90   XYZ
    dof rx rz
    limits (-90.0 90.0)
           (-45.0 45.0)
  end
  begin
     id 29
     name rfingers
     direction -1 -4.48949e-011 -3.11466e-027   
     length 0.597378   
     axis 1.98742e-015 -90 -90   XYZ
    dof rx
    limits (0.0 90.0)
  end
  begin
     id 30
     name rthumb
     direction -0.707107 -6.34931e-011 0.707107   
     length 0.857719   
     axis -90 -45 -2.85299e-015   XYZ
    dof rx rz
    limits (-45.0 45.0)
           (-45.0 45.0)
  end
:hierarchy
  begin
    root lhipjoint rhipjoint lowerback
    lhipjoint lfemur
    lfemur ltibia
    ltibia lfoot
    lfoot ltoes
    rhipjoint rfemur
    rfemur rtibia
    rtibia rfoot
    rfoot rtoes
    lowerback upperback
    upperback thorax
    thorax lowerneck lclavicle rclavicle
    lowerneck upperneck
    upperneck head
    lclavicle lhumerus
    lhumerus lradius
    lradius lwrist
    lwrist lhand lthumb
    lhand lfingers
    rclavicle rhumerus
    rhumerus rradius
    rradius rwrist
    rwrist rhand rthumb
    rhand rfingers
  end

#!OML:ASF E:\I on waltz\AllaLogoMonkeySwing\Project 1\Capture day 1\Session 1\Subject1.ASF
:FULLY-SPECIFIED
:DEGREES
420
root 0.051429 17.8335 -3.97253 7.40676 -9.45135 1.00069
lowerback 16.5143 -0.775795 -4.24128
upperback 2.10093 -1.65835 1.75075
thorax -6.83245 -0.677348 4.65266
lowerneck -12.5949 4.80093 2.52524
upperneck 6.73379 6.41212 -4.13667
head 4.27411 2.98759 -1.20471
rclavicle -2.38542e-015 1.09332e-014
rhumerus -42.6988 -16.3414 -74.4791
rradius 39.4623
rwrist -8.02993
rhand -10.452 -40.3268
rfingers 7.12502
rthumb 15.5484 -69.7218
lclavicle -2.38542e-015 1.09332e-014
lhumerus -47.7413 9.34918 81.3183
lradius 51.8637
lwrist 4.6885
lhand -6.40266 -10.8395
lfingers 7.12502
lthumb 19.4452 18.2082
rfemur -17.8204 1.66048 12.9762
rtibia 26.6092
rfoot -15.9521 0.696787
rtoes 12.593
lfemur -9.01786 3.31127 -16.8434
ltibia 19.5727
lfoot -15.9698 5.43977
ltoes -27.0896
421
root 0.0795057 17.8039 -4.03812 8.26845 -9.40854 0.824441
lowerback 17.5353 -0.743413 -4.07112
upperback 2.25189 -1.61483 1.82441
thorax -7.23625 -0.649505 4.65952
lowerneck -12.8518 4.84718 2.52009
upperneck 5.7864 6.4488 -4.27895
head 4.03005 3.00587 -1.25022
rclavicle 4.96962e-015 -5.1684e-015
rhumerus -42.3449 -15.5261 -75.0466
rradius 40.8144
rwrist -8.64681
rhand -10.5407 -40.4769
rfingers 7.12502
rthumb 15.4629 -69.8784
lclavicle 4.96962e-015 -5.1684e-015
lhumerus -47.9105 9.01413 81.5931
lradius 52.9176
lwrist 5.60073
lhand -6.76272 -10.9008
lfingers 7.12502
lthumb 19.099 18.1815
rfemur -19.706 1.19569 13.0992
rtibia 27.9224
rfoot -16.2656 0.724002
rtoes 11.8633
lfemur -11.3903 3.75944 -16.763
ltibia 21.9324
lfoot -16.5804 5.36008
ltoes -28.4527
422
root 0.111343 17.7577 -4.11138 9.13545 -9.3735 0.62415
lowerback 18.5713 -0.690301 -3.82544
upperback 2.49571 -1.52495 1.8939
thorax -7.55117 -0.606507 4.60504
lowerneck -13.0626 4.88993 2.49084
upperneck 4.31586 6.46524 -4.32895
head 4.03195 3.03384 -1.40701
rclavicle 6.95746e-015 9.14409e-015
rhumerus -41.8651 -14.8573 -75.6088
rradius 42.2515
rwrist -9.00838
rhand -10.4618 -40.6134
rfingers 7.12502
rthumb 15.5389 -70.009
lclavicle 6.95746e-015 9.14409e-015
lhumerus -47.7426 8.5605 81.9886
lradius 53.7948
lwrist 6.52458
lhand -7.16467 -10.7786
lfingers 7.12502
lthumb 18.7124 18.3414
rfemur -21.8453 0.675116 13.2699
rtibia 29.6607
rfoot -16.6281 0.949163
rtoes 11.6299
lfemur -13.9688 4.18308 -16.6935
ltibia 24.5694
lfoot -17.6841 5.23298
ltoes -27.4682
423
root 0.146205 17.6915 -4.18991 10.1223 -9.46798 0.379863
lowerback 19.5985 -0.579063 -3.59046
upperback 2.70598 -1.35494 1.97347
thorax -7.90101 -0.523414 4.54622
lowerneck -13.2572 4.9252 2.5082
upperneck 3.14461 6.48588 -4.63656
head 3.66821 3.04087 -1.51464
rclavicle 3.32964e-014 4.37326e-015
rhumerus -41.3867 -14.2421 -76.1179
rradius 43.6775
rwrist -9.32619
rhand -10.425 -40.5949
rfingers 7.12502
rthumb 15.5743 -69.9879
lclavicle 3.32964e-014 4.37326e-015
lhumerus -47.5159 7.99451 82.4424
lradius 54.6839
lwrist 7.43402
lhand -7.37411 -10.5902
lfingers 7.12502
lthumb 18.511 18.549
rfemur -24.4272 0.183261 13.5112
rtibia 31.8921
rfoot -17.1837 1.12997
rtoes 11.8255
lfemur -16.7985 4.69747 -16.6235
ltibia 27.3198
lfoot -18.7959 5.16296
ltoes -26.2563
424
root 0.181049 17.6019 -4.27094 11.1445 -9.64374 0.0889929
lowerback 20.6568 -0.435599 -3.42395
upperback 2.90733 -1.1549 2.04391
thorax -8.27431 -0.424146 4.50631
lowerneck -13.4805 4.94516 2.67585
upperneck 1.97364 6.4605 -5.00976
head 3.3226 3.02511 -1.67363
rclavicle 2.65378e-014 -3.81667e-014
rhumerus -40.8238 -13.62 -76.6698
rradius 45.0169
rwrist -9.68495
rhand -10.3566 -40.5007
rfingers 7.12502
rthumb 15.6402 -69.8885
lclavicle 2.65378e-014 -3.81667e-014
lhumerus -47.3682 7.39664 82.824
lradius 55.7475
lwrist 8.2722
lhand -7.30138 -10.4159
lfingers 7.12502
lthumb 18.5809 18.7166
rfemur -27.3362 -0.376573 13.8675
rtibia 34.6118
rfoot -18.0076 1.16402
rtoes 11.3815
lfemur -19.7674 5.30723 -16.519
ltibia 30.2859
lfoot -19.6755 5.19598
ltoes -26.3172
425
root 0.215129 17.4866 -4.35729 12.2686 -9.78226 -0.45652
lowerback 21.6965 -0.309979 -3.06443
upperback 3.11837 -0.92453 2.17047
thorax -8.62732 -0.317564 4.40312
lowerneck -13.7042 4.95046 2.79155
upperneck 0.78662 6.41144 -5.2709
head 2.96633 3.00252 -1.78689
rclavicle 2.08724e-015 -1.15295e-014
rhumerus -40.1071 -12.9948 -77.2439
rradius 46.3213
rwrist -10.0359
rhand -10.1826 -40.5548
rfingers 7.12502
rthumb 15.8078 -69.9294
lclavicle 2.08724e-015 -1.15295e-014
lhumerus -47.1558 6.81671 83.1999
lradius 56.843
lwrist 9.01493
lhand -7.1384 -10.1707
lfingers 7.12502
lthumb 18.7377 18.9468
rfemur -30.4973 -0.99949 14.6234
rtibia 37.6532
rfoot -18.9155 1.16551
rtoes 10.4672
lfemur -22.9971 6.04297 -16.1312
ltibia 33.6107
lfoot -20.5604 5.25709
ltoes -26.9004
426
root 0.249989 17.3338 -4.44834 13.3136 -10.1061 -0.447547
lowerback 22.7468 -0.0964379 -3.3333
upperback 3.29532 -0.740114 2.13808
thorax -9.00614 -0.214851 4.49629
lowerneck -13.8041 5.02472 2.87591
upperneck -0.456041 6.45596 -5.52986
head 2.57409 3.02964 -1.88905
rclavicle -2.18663e-015 1.799e-014
rhumerus -39.3368 -12.2909 -77.8003
rradius 47.5568
rwrist -10.251
rhand -10.0057 -40.6477
rfingers 7.12502
rthumb 15.9781 -70.0087
lclavicle -2.18663e-015 1.799e-014
lhumerus -46.8661 6.31079 83.5569
lradius 57.7743
lwrist 9.61902
lhand -7.04095 -9.91744
lfingers 7.12502
lthumb 18.8314 19.191
rfemur -33.8641 -1.63796 14.7382
rtibia 40.9041
rfoot -19.6988 1.27714
rtoes 11.0234
lfemur -26.3482 6.81511 -16.4753
ltibia 37.1086
lfoot -21.4592 5.33847
ltoes -27.7636
427
root 0.280219 17.1518 -4.54015 14.4398 -10.3482 -0.529851
lowerback 23.7305 0.0752024 -3.5364
upperback 3.42854 -0.598648 2.10659
thorax -9.3917 -0.133601 4.56046
lowerneck -13.7248 5.13456 3.00129
upperneck -1.87362 6.53647 -5.85678
head 2.10159 3.07866 -2.02329
rclavicle 4.32357e-015 -7.95139e-015
rhumerus -38.5487 -11.7444 -78.3462
rradius 48.7225
rwrist -10.1104
rhand -9.88865 -40.5335
rfingers 7.12502
rthumb 16.0909 -69.8855
lclavicle 4.32357e-015 -7.95139e-015
lhumerus -46.6013 5.80676 83.8295
lradius 58.7385
lwrist 10.0665
lhand -6.97397 -9.7305
lfingers 7.12502
lthumb 18.8959 19.3717
rfemur -37.4444 -2.2294 14.9918
rtibia 44.3218
rfoot -20.345 1.62056
rtoes 13.454
lfemur -29.9006 7.56153 -16.7174
ltibia 40.7589
lfoot -22.386 5.36761
ltoes -28.6164
428
root 0.304541 16.9467 -4.63129 15.5372 -10.4511 -0.696176
lowerback 24.7081 0.219648 -3.62452
upperback 3.58894 -0.467642 2.0725
thorax -9.74034 -0.0630889 4.55435
lowerneck -13.7552 5.22329 3.01264
upperneck -3.22533 6.59738 -5.97071
head 1.66086 3.12328 -2.06705
rclavicle -2.90226e-014 2.77305e-014
rhumerus -37.6611 -11.517 -78.8922
rradius 49.9417
rwrist -9.81239
rhand -9.87688 -40.4765
rfingers 7.12502
rthumb 16.1022 -69.8276
lclavicle -2.90226e-014 2.77305e-014
lhumerus -46.3394 5.19253 84.0711
lradius 59.9138
lwrist 10.455
lhand -6.84871 -9.55071
lfingers 7.12502
lthumb 19.0163 19.5397
rfemur -41.0082 -2.8568 15.4245
rtibia 47.8144
rfoot -21.0126 1.91705
rtoes 15.5576
lfemur -33.6092 8.19143 -16.8347
ltibia 44.6596
lfoot -23.5501 5.42921
ltoes -29.1848
429
root 0.324079 16.7189 -4.71841 16.7159 -10.3981 -1.09001
lowerback 25.5172 0.313126 -3.46777
upperback 3.75667 -0.326785 2.10101
thorax -9.99103 0.000951177 4.46599
lowerneck -14.019 5.33556 2.92496
upperneck -4.30248 6.70951 -5.94538
head 1.34731 3.19142 -2.03941
rclavicle 1.86485e-014 -3.598e-014
rhumerus -36.6629 -11.2794 -79.4608
rradius 51.2019
rwrist -9.78791
rhand -10.0491 -40.4972
rfingers 7.12502
rthumb 15.9364 -69.8615
lclavicle 1.86485e-014 -3.598e-014
lhumerus -46.0183 4.60594 84.3112
lradius 61.0956
lwrist 10.723
lhand -6.80596 -9.53967
lfingers 7.12502
lthumb 19.0574 19.5467
rfemur -44.6054 -3.40058 16.2203
rtibia 51.3528
rfoot -21.9156 1.56631
rtoes 15.2541
lfemur -37.5974 8.82431 -16.6891
ltibia 48.8859
lfoot -24.8822 5.44415
ltoes -29.5338
430
root 0.337805 16.4719 -4.79848 17.926 -10.282 -1.50716
lowerback 26.134 0.416642 -3.30439
upperback 3.89992 -0.162259 2.14146
thorax -10.1678 0.0739179 4.37286
lowerneck -14.0559 5.3702 2.88534
upperneck -5.5102 6.71251 -6.20857
head 0.965011 3.20423 -2.12959
rclavicle 2.19719e-014 -4.30182e-014
rhumerus -35.6098 -10.9857 -80.0342
rradius 52.312
rwrist -9.98832
rhand -10.4083 -40.3787
rfingers 7.12502
rthumb 15.5904 -69.7704
lclavicle 2.19719e-014 -4.30182e-014
lhumerus -45.62 4.13577 84.5164
lradius 62.0878
lwrist 10.7954
lhand -6.91577 -9.90347
lfingers 7.12502
lthumb 18.9518 19.1932
rfemur -48.2626 -3.78763 17.0904
rtibia 55.0235
rfoot -23.171 0.669907
rtoes 13.2905
lfemur -41.5996 9.49737 -16.5576
ltibia 53.0985
lfoot -26.1902 5.37769
ltoes -29.7958
431
root 0.337907 16.2118 -4.87185 18.9633 -9.91375 -2.2906
lowerback 26.8706 0.492964 -2.85636
upperback 4.04806 0.0617101 2.3143
thorax -10.4044 0.167142 4.24385
lowerneck -13.6589 5.37641 3.01041
upperneck -7.019 6.64256 -6.78351
head 0.432967 3.18648 -2.37133
rclavicle 1.0461e-014 2.56184e-014
rhumerus -34.4237 -10.6917 -80.625
rradius 53.1495
rwrist -10.2068
rhand -10.6931 -40.2006
rfingers 7.12502
rthumb 15.3162 -69.6135
lclavicle 1.0461e-014 2.56184e-014
lhumerus -45.1855 3.84901 84.6437
lradius 62.9556
lwrist 10.7328
lhand -6.96969 -10.288
lfingers 7.12502
lthumb 18.9 18.8138
rfemur -51.5163 -3.89025 18.3974
rtibia 58.587
rfoot -24.4517 -0.356603
rtoes 12.2057
lfemur -45.2897 10.2869 -15.939
ltibia 57.2343
lfoot -27.4776 5.33365
ltoes -29.7022
432
root 0.32507 15.9451 -4.93782 19.899 -9.38678 -2.96015
lowerback 27.5741 0.566203 -2.58228
upperback 4.14033 0.240916 2.49187
thorax -10.6792 0.247553 4.23512
lowerneck -13.2847 5.55317 3.1916
upperneck -8.27906 6.79975 -7.24233
head -0.00330769 3.2837 -2.57464
rclavicle 2.0276e-014 8.54774e-015
rhumerus -33.0969 -10.3523 -81.2282
rradius 53.8173
rwrist -10.1741
rhand -10.5055 -40.1215
rfingers 7.12502
rthumb 15.4968 -69.5205
lclavicle 2.0276e-014 8.54774e-015
lhumerus -44.711 3.92567 84.6511
lradius 63.5653
lwrist 10.5788
lhand -7.03607 -10.758
lfingers 7.12502
lthumb 18.8361 18.35
rfemur -54.6418 -3.99039 19.6095
rtibia 62.15
rfoot -25.497 -1.29404
rtoes 12.3931
lfemur -48.8516 11.0119 -15.4419
ltibia 61.2259
lfoot -28.684 5.31437
ltoes -29.4129
